<?xml version="1.0" encoding="utf-8"?>
<!-- Generator: Adobe Illustrator 25.2.1, SVG Export Plug-In . SVG Version: 6.00 Build 0)  -->
<svg version="1.1" id="Layer_1" xmlns="http://www.w3.org/2000/svg" xmlns:xlink="http://www.w3.org/1999/xlink" x="0px" y="0px"
	 viewBox="0 0 360 394" style="enable-background:new 0 0 360 394;" xml:space="preserve">
<style type="text/css">
	.st0{display:none;fill:#FFFFFF;}
	.st1{fill:#FFFFFF;}
</style>
<g>
	<g>
		<path class="st0" d="M-721,1.6c0-27.3,0-54.7,0-82c188.3,0,376.7,0,565,0c-29.2-17.1-58.5-33.2-87.7-49.3
			c-4.2-2.3-8.2-5.1-12.3-7.7c27.3,0,54.7,0,82,0c10.5,6,21,12,31.6,17.9c21.4,11.9,42.8,23.6,64.2,35.4c4.2,2.4,8.4,3.8,13.5,3.8
			c341.7-0.1,683.5-0.1,1025.2-0.1c2.2,0,4.3-0.1,6.5-0.2c0.3,0.1,0.7,0.1,1,0.2c0,202.2,0,404.3,0,606.5c0,1.5-0.6,3-1,4.5
			c0-18.9,0-37.8,0-56.7c-152.5,0-304.3,0-457,0c1.4,0.9,2,1.5,2.7,1.8c17.2,9.6,34.3,19.2,51.5,28.9c15.3,8.6,30.6,17.3,45.8,26
			c-27.3,0-54.7,0-82,0c-0.5-0.4-1-0.8-1.6-1.1c-31.3-17.6-62.7-35.1-93.9-52.8c-3.9-2.2-7.7-3.1-12.2-3.1
			c-380.4,0.1-760.9,0.1-1141.3,0.1c0-27,0-54,0-81c88.2,0,176.4,0,264.6,0c0-19.4,0-38.1,0-57.1c-69.3,0-138.2,0-207.3,0
			c0-46.1,0-91.8,0-138c54.7,0,109,0,163.3,0c0-19.2,0-38,0-57c-54.6,0-108.9,0-163.7,0c0-13.7,0-27.1,0-40.9c-19.3,0-38.1,0-56.9,0
			c0-13.7,0-27.3,0-41c88.2,0,176.4,0,264.6,0c0-19.3,0-38,0-57C-544.9,1.6-632.9,1.6-721,1.6z M702.3,98.8c0,97.8,0,195.1,0,292.4
			c88.4,0,176.4,0,264.3,0c0-19,0-37.6,0-56.7c-69.3,0-138.4,0-207.3,0c0-46.2,0-92,0-138c54.6,0,108.9,0,163.3,0
			c0-19.1,0-37.8,0-57c-54.7,0-109.1,0-163.8,0c0-13.8,0-27.1,0-40.6C739.8,98.8,721.3,98.8,702.3,98.8z M663.1,391.6
			c-1.4-2.7-2.3-4.5-3.2-6.2c-34.8-61.8-69.5-123.6-104.4-185.3c-2-3.6-2.2-6.2-0.1-9.9c34.5-61,68.8-122.1,103.2-183.1
			c0.9-1.6,1.8-3.3,2.9-5.5c-21.3,0-41.6-0.1-62,0.1c-1.6,0-3.8,1.7-4.7,3.3c-10.4,18.2-20.6,36.5-31,54.8
			c-45.3,80.1-90.6,160.2-135.7,240.4c-3,5.3-6.6,10.2-6.4,17.2c0.5,22.8,0.2,45.6,0.2,68.5c0,1.8,0,3.5,0,5.3c19.3,0,38,0,57,0
			c0-20.5-0.1-40.6,0.1-60.8c0-2.7,0.8-5.6,2.1-8c12-21.7,24.3-43.3,36.4-64.9c0.8-1.4,1.6-2.7,2.7-4.5c1.2,2,2,3.5,2.8,4.9
			c22,39,43.9,78,65.9,117c3,5.4,4.9,12.8,9.5,15.4c4.8,2.8,12.2,1,18.5,1.1C632,391.6,647,391.6,663.1,391.6z M221.1,312.1
			c18.1,10.1,35.8,20.1,53.6,29.9c1.1,0.6,3.4,0,4.8-0.8c22.5-12.3,44.7-25.2,67.4-37c9.3-4.8,13.1-11.4,13.1-21.4
			c-0.1-56.3-0.2-112.6,0.1-169c0.1-12-3.2-20-14.8-25.9c-23.3-11.8-45.7-25.3-68.6-37.9c-28.1-15.6-56.3-30.9-84.4-46.5
			c-8.3-4.6-16.2-4.9-24.5-0.1c-8.4,4.8-16.9,9.3-25.4,14c-5.9,3.3-11.7,6.7-18,10.3c2.8,1.6,4.9,2.7,7.1,3.9
			c18.6,10.2,37.1,20.4,55.7,30.6c18.1,9.9,36.1,19.9,54.1,29.9c20.5,11.4,41,22.8,61.5,34.1c2.3,1.3,3.2,2.7,3.2,5.4
			c-0.1,43.3-0.1,86.7,0,130c0,2.8-1,4.2-3.2,5.4c-7.3,3.9-14.6,8-21.8,12C261.1,290,241.3,300.9,221.1,312.1z M138.4,81.3
			c-18-9.8-35.4-19.2-52.6-28.9c-2.5-1.4-4.2-1.2-6.6,0.1c-22,12.4-43.9,25.1-66.4,36.7C3.4,94,0,100.6,0,110.2
			c0.1,13.7,0,27.3,0,41c0,43.8,0.1,87.6,0,131.5c0,9.9,3.2,17.3,12.9,21.4c6.1,2.6,11.7,6.3,17.5,9.6
			c23.6,13.1,47.1,26.2,70.7,39.3c23.3,12.9,46.6,25.8,69.9,38.6c6.2,3.4,12.3,3.3,18.4-0.2c9.3-5.3,18.6-10.4,27.9-15.5
			c5.7-3.2,11.4-6.3,17.5-9.7c-1.4-1-2.1-1.7-3-2.1c-19.5-10.8-39-21.7-58.5-32.5c-17.5-9.8-35-19.6-52.6-29.4
			c-21.1-11.7-42.2-23.3-63.3-34.9c-2.7-1.5-3.5-3.2-3.5-6.3c0.1-36.5,0.1-73,0.1-109.5c0-7.8,0-15.6,0-23.4
			C82.2,112.5,110,97,138.4,81.3z M-36.3,2.6c-20.8,0-40.5,0.1-60.1-0.1c-3.7,0-5.5,1-7.1,4.4c-51.3,105.4-102.8,210.8-154.1,316.3
			c-1,2-0.9,5.2,0.1,7.3c8.8,18.6,18,37.2,27,55.7c1,2.1,2.1,4.3,3.6,7.4C-163.3,262.8-100,133.1-36.3,2.6z M-282,280.9
			c10.5-21.5,20.8-42.3,30.8-63.1c0.9-1.9,1-4.9,0.1-6.8C-284.3,142.6-317.7,74.3-351,5.9c-1.3-2.7-2.9-3.4-5.7-3.4
			c-18.8,0.1-37.6,0.1-56.5,0.1c-1.3,0-2.5,0.2-4.5,0.3C-372.3,95.7-327.3,188-282,280.9z M702.2,57.2c88.4,0,176.4,0,264.4,0
			c0-19.1,0-37.8,0-56.4c-88.3,0-176.2,0-264.4,0C702.2,19.6,702.2,38.2,702.2,57.2z M422.2,228c1.1-1.3,2-2,2.5-2.9
			c7.8-13.8,15.5-27.7,23.3-41.5c8.1-14.4,16.5-28.6,24.4-43.1c3.2-5.9,6.9-11.4,6.8-19.1c-0.5-38-0.2-76-0.2-113.9
			c0-1.9,0-3.8,0-5.7c-19.4,0-38,0-56.8,0C422.2,77.2,422.2,152.2,422.2,228z"/>
		<path class="st0" d="M-721,473.6c380.4,0,760.9,0,1141.3-0.1c4.4,0,8.3,0.9,12.2,3.1c31.3,17.7,62.6,35.2,93.9,52.8
			c0.6,0.3,1.1,0.8,1.6,1.1c-416.3,0-832.7,0-1249,0C-721,511.5-721,492.6-721,473.6z"/>
		<path class="st0" d="M966.9-80.6c-2.2,0.1-4.3,0.2-6.5,0.2c-341.7,0-683.5,0-1025.2,0.1c-5,0-9.2-1.4-13.5-3.8
			c-21.4-11.9-42.8-23.6-64.2-35.4c-10.6-5.9-21.1-11.9-31.6-17.9c380.3,0,760.7,0,1141,0C966.9-118.5,966.9-99.5,966.9-80.6z"/>
		<path class="st0" d="M-721,99.6c18.8,0,37.6,0,56.9,0c0,13.7,0,27.1,0,40.9c54.8,0,109,0,163.7,0c0,19.1,0,37.8,0,57
			c-54.3,0-108.7,0-163.3,0c0,46.2,0,91.9,0,138c69.1,0,138,0,207.3,0c0,19.1,0,37.8,0,57.1c-88.2,0-176.4,0-264.6,0
			C-721,294.9-721,197.2-721,99.6z"/>
		<path class="st0" d="M-256-137.4c4.1,2.6,8.1,5.3,12.3,7.7c29.2,16.2,58.5,32.3,87.7,49.3c-188.3,0-376.7,0-565,0c0-19,0-38,0-57
			C-566-137.4-411-137.4-256-137.4z"/>
		<path class="st0" d="M610,530.6c-15.3-8.7-30.5-17.3-45.8-26c-17.1-9.7-34.3-19.2-51.5-28.9c-0.7-0.4-1.3-0.9-2.7-1.8
			c152.6,0,304.5,0,457,0c0,18.8,0,37.7,0,56.7C848,530.6,729,530.6,610,530.6z"/>
		<path class="st0" d="M-721,1.6c88.1,0,176.2,0,264.6,0c0,19,0,37.7,0,57c-88.2,0-176.4,0-264.6,0C-721,39.6-721,20.6-721,1.6z"/>
		<path class="st0" d="M966.9-80.6c0-18.9,0-37.9,0-56.8c0.3,1.2,1,2.3,1,3.5c0.1,17.8,0,35.7,0,53.5
			C967.6-80.5,967.3-80.5,966.9-80.6z"/>
		<path class="st0" d="M702.3,98.8c18.9,0,37.5,0,56.5,0c0,13.5,0,26.8,0,40.6c54.7,0,109.1,0,163.8,0c0,19.3,0,38,0,57
			c-54.4,0-108.6,0-163.3,0c0,46.1,0,91.8,0,138c69,0,138,0,207.3,0c0,19.1,0,37.7,0,56.7c-87.9,0-176,0-264.3,0
			C702.3,293.9,702.3,196.6,702.3,98.8z"/>
		<path class="st0" d="M663.1,391.6c-16.1,0-31.1,0-46.1,0c-6.3,0-13.7,1.7-18.5-1.1c-4.6-2.7-6.5-10.1-9.5-15.4
			c-22-39-43.9-78-65.9-117c-0.8-1.4-1.7-2.9-2.8-4.9c-1.1,1.8-1.9,3.1-2.7,4.5c-12.2,21.6-24.4,43.2-36.4,64.9
			c-1.3,2.3-2.1,5.3-2.1,8c-0.2,20.1-0.1,40.3-0.1,60.8c-19,0-37.7,0-57,0c0-1.8,0-3.6,0-5.3c0-22.8,0.3-45.7-0.2-68.5
			c-0.2-7,3.5-11.9,6.4-17.2c45.1-80.2,90.4-160.3,135.7-240.4c10.3-18.3,20.5-36.6,31-54.8c0.9-1.5,3.1-3.2,4.7-3.3
			c20.3-0.2,40.6-0.1,62-0.1c-1.2,2.2-2,3.9-2.9,5.5c-34.4,61.1-68.7,122.1-103.2,183.1c-2.1,3.7-1.9,6.3,0.1,9.9
			c34.9,61.7,69.7,123.5,104.4,185.3C660.8,387.1,661.7,388.8,663.1,391.6z"/>
		<path class="st1" d="M221.1,312.1c20.2-11.2,40-22.1,59.7-33.1c7.3-4,14.5-8.1,21.8-12c2.3-1.2,3.2-2.6,3.2-5.4
			c-0.1-43.3-0.1-86.7,0-130c0-2.7-0.9-4.1-3.2-5.4c-20.5-11.3-41-22.7-61.5-34.1c-18-10-36.1-20-54.1-29.9
			c-18.5-10.2-37.1-20.4-55.7-30.6c-2.1-1.2-4.3-2.4-7.1-3.9c6.4-3.6,12.2-7.1,18-10.3c8.4-4.7,17-9.1,25.4-14
			c8.3-4.8,16.2-4.6,24.5,0.1c28.1,15.6,56.3,30.9,84.4,46.5c22.9,12.7,45.3,26.1,68.6,37.9c11.6,5.9,14.9,13.9,14.8,25.9
			c-0.3,56.3-0.2,112.6-0.1,169c0,10-3.8,16.6-13.1,21.4c-22.7,11.8-44.9,24.7-67.4,37c-1.4,0.7-3.6,1.4-4.8,0.8
			C256.9,332.2,239.2,322.3,221.1,312.1z"/>
		<path class="st1" d="M138.4,81.3C110,97,82.2,112.5,54.1,128.1c0,7.8,0,15.6,0,23.4c0,36.5,0,73-0.1,109.5c0,3,0.8,4.8,3.5,6.3
			c21.1,11.5,42.2,23.2,63.3,34.9c17.6,9.7,35,19.6,52.6,29.4c19.5,10.9,39,21.7,58.5,32.5c0.9,0.5,1.6,1.1,3,2.1
			c-6.1,3.4-11.8,6.5-17.5,9.7c-9.3,5.2-18.7,10.3-27.9,15.5c-6.2,3.5-12.2,3.7-18.4,0.2c-23.3-12.9-46.6-25.7-69.9-38.6
			c-23.6-13.1-47.1-26.2-70.7-39.3c-5.8-3.2-11.4-7-17.5-9.6C3.2,299.9,0,292.6,0,282.7c0.1-43.8,0-87.6,0-131.5c0-13.7,0-27.3,0-41
			c0-9.6,3.4-16.2,12.7-21c22.5-11.6,44.4-24.3,66.4-36.7c2.4-1.4,4-1.5,6.6-0.1C103,62.1,120.4,71.5,138.4,81.3z"/>
		<path class="st0" d="M-36.3,2.6c-63.7,130.5-126.9,260.2-190.7,391c-1.5-3.2-2.6-5.3-3.6-7.4c-9-18.5-18.2-37-27-55.7
			c-1-2-1-5.3-0.1-7.3c51.3-105.5,102.8-210.8,154.1-316.3c1.6-3.4,3.5-4.4,7.1-4.4C-76.8,2.7-57.2,2.6-36.3,2.6z"/>
		<path class="st0" d="M-282,280.9c-45.3-92.8-90.3-185.2-135.6-278c2-0.1,3.2-0.3,4.5-0.3c18.8,0,37.6,0,56.5-0.1
			c2.8,0,4.4,0.7,5.7,3.4c33.2,68.4,66.6,136.7,99.8,205.1c0.9,1.9,0.8,4.9-0.1,6.8C-261.2,238.6-271.4,259.4-282,280.9z"/>
		<path class="st0" d="M702.2,57.2c0-19,0-37.6,0-56.4c88.2,0,176.1,0,264.4,0c0,18.7,0,37.4,0,56.4
			C878.6,57.2,790.6,57.2,702.2,57.2z"/>
		<path class="st0" d="M422.2,228c0-75.8,0-150.9,0-226.2c18.8,0,37.4,0,56.8,0c0,1.8,0,3.8,0,5.7c0,38-0.3,76,0.2,113.9
			c0.1,7.7-3.6,13.2-6.8,19.1c-7.9,14.5-16.3,28.7-24.4,43.1c-7.8,13.8-15.5,27.7-23.3,41.5C424.2,226,423.3,226.8,422.2,228z"/>
	</g>
</g>
</svg>
