<?xml version="1.0" encoding="utf-8"?>
<!-- Generator: Adobe Illustrator 25.2.1, SVG Export Plug-In . SVG Version: 6.00 Build 0)  -->
<svg version="1.1" id="Layer_1" xmlns="http://www.w3.org/2000/svg" xmlns:xlink="http://www.w3.org/1999/xlink" x="0px" y="0px"
	 viewBox="0 0 500 422" style="enable-background:new 0 0 500 422;" xml:space="preserve">
<style type="text/css">
	.st0{fill:#EBEBEB;}
	.st1{fill:#C7C7C7;}
	.st2{fill:#DBDBDB;}
</style>
<path class="st0" d="M357.5,223.4l-46.2,1l-23.4,0.4c-7.8,0-15.7,0-23.5,0h-1.4v-1.6v-39.4V182h1.8l46.6,0.2c15.5,0,31,0.4,46.6,0.6
	h1v1c0,6.7-0.3,13.3-0.5,19.9L357.5,223.4z M357.5,223.4l-0.5-19.9c-0.2-6.5-0.4-13-0.5-19.5l1,1c-15.6,0-31.1,0.6-46.6,0.6
	l-46.6,0.2l1.8-1.8l-0.2,39.4l-1.5-1.6c7.7,0,15.3,0,23,0.2l23.2,0.4L357.5,223.4z"/>
<path class="st0" d="M409.4,273l-46.2,1l-23.4,0.4c-7.8,0-15.7,0-23.5,0.2h-1.6V273l-0.2-39.4v-1.8h1.8l46.6,0.2
	c15.5,0,31.1,0.4,46.6,0.6h1v1c0,6.7-0.3,13.3-0.5,19.9L409.4,273z M409.4,273l-0.5-19.9c0-6.5-0.4-13-0.5-19.5l1,1
	c-15.5,0-31.1,0.6-46.6,0.6l-46.6,0.2l1.8-1.8l-0.2,39.4l-1.5-1.6c7.7,0,15.3,0,23,0.2l23.2,0.4L409.4,273z"/>
<rect x="367.1" class="st1" width="3.5" height="294.8"/>
<polygon class="st0" points="266.5,393.4 274.7,411.5 463,411.5 471.2,393.4 391.1,337.9 346.7,337.9 "/>
<polygon class="st2" points="341.1,284.5 346.7,337.9 391.1,337.9 396.6,284.5 "/>
<polygon class="st2" points="266.5,393.4 274.8,411.5 463,411.5 471.2,393.4 "/>
<rect x="119.6" class="st1" width="3.5" height="236.4"/>
<polygon class="st0" points="19,335 27.2,353.1 215.5,353.1 223.7,335 143.5,279.6 99.2,279.6 "/>
<polygon class="st2" points="93.6,226.1 99.2,279.6 143.5,279.6 149.1,226.1 "/>
<polygon class="st2" points="19,335 27.2,353.1 215.5,353.1 223.7,335 "/>
</svg>
