<?xml version="1.0" encoding="utf-8"?>
<!-- Generator: Adobe Illustrator 25.2.1, SVG Export Plug-In . SVG Version: 6.00 Build 0)  -->
<svg version="1.1" id="Layer_1" xmlns="http://www.w3.org/2000/svg" xmlns:xlink="http://www.w3.org/1999/xlink" x="0px" y="0px"
	 viewBox="0 0 281 198.4" style="enable-background:new 0 0 281 198.4;" xml:space="preserve">
<style type="text/css">
	.st0{display:none;fill:#FFFFFF;}
	.st1{fill:#FFFFFF;}
</style>
<g>
	<g>
		<path class="st0" d="M0,128.2c0-43.7,0-87.3,0-131c93.7,0,187.3,0,281,0c0,2.7,0,5.3,0,8c-1.4-4.3-4.3-5.8-8.6-5
			c-10.6,2-21.4,3.1-31.7,6.2c-26.1,7.7-49.2,20.8-65.9,42.8c-21,27.7-29.9,59.2-25.8,93.9c2.2,18.2,11.3,32.4,26.2,43.3
			c13,9.5,27.4,12.6,43.2,12c17.3-0.6,31.4-7.8,43.2-19.6c12.8-12.9,18.9-28.9,18.4-47.3c-0.7-26.4-13.3-45.7-36.1-57.9
			c-8.3-4.4-18.2-6-27.8-9c0.1-0.5,0.2-2.2,1-3.5c3.4-5.1,6.5-10.3,10.5-14.8c10.5-11.8,23.4-20.6,37.1-28.4
			c5.7-3.3,10.9-7.7,16.3-11.5c0,65.7,0,131.3,0,197c-93.7,0-187.3,0-281,0c0-23.3,0-46.7,0-70c0.3,1.2,0.9,2.4,1,3.6
			c0.9,16.1,6.8,30.2,17.9,41.6c13.5,13.7,29.9,20.6,49.6,19.9c19.7-0.6,35.9-7.8,48.7-22.8c14.3-16.9,19.3-36.5,14.3-57.6
			c-6.1-25.8-22.8-42.7-48.7-49.7c-4.8-1.3-9.8-1.9-15.1-2.9c7.6-16.2,19.6-27.5,33.5-37c8.9-6.1,18.3-11.4,27.8-16.7
			c3.6-2,4.6-4.6,3.8-8.1c-0.8-3.7-4-3.5-6.8-3.2c-5.4,0.5-10.8,0.9-16.1,2C78.6,9,50.5,21.7,29.5,47.1c-16,19.4-24.3,42-27.5,66.6
			C1.4,118.6,0.7,123.4,0,128.2z"/>
		<path class="st1" d="M281,6.2c-5.4,3.9-10.5,8.2-16.3,11.5c-13.7,7.8-26.6,16.6-37.1,28.4c-4,4.5-7.2,9.8-10.5,14.8
			c-0.8,1.2-0.9,3-1,3.5c9.7,3,19.5,4.6,27.8,9c22.8,12.2,35.4,31.4,36.1,57.9c0.5,18.4-5.5,34.4-18.4,47.3
			c-11.8,11.9-25.9,19-43.2,19.6c-15.8,0.6-30.2-2.6-43.2-12c-14.9-10.8-24-25-26.2-43.3c-4.1-34.7,4.8-66.2,25.8-93.9
			c16.7-22,39.8-35,65.9-42.8c10.3-3,21.1-4.2,31.7-6.2c4.3-0.8,7.3,0.7,8.6,5C281,5.5,281,5.9,281,6.2z"/>
		<path class="st1" d="M0,128.2c0.7-4.8,1.4-9.6,2-14.4c3.2-24.7,11.5-47.2,27.5-66.6C50.5,21.7,78.6,9,110,2.3
			c5.3-1.1,10.7-1.5,16.1-2c2.8-0.3,6-0.5,6.8,3.2c0.8,3.5-0.3,6.1-3.8,8.1c-9.4,5.3-18.9,10.6-27.8,16.7
			c-13.9,9.5-25.9,20.8-33.5,37c5.3,1,10.3,1.6,15.1,2.9c25.9,7,42.6,23.9,48.7,49.7c5,21.1,0,40.8-14.3,57.6
			c-12.8,15-29,22.2-48.7,22.8c-19.7,0.6-36.2-6.2-49.6-19.9C7.7,167,1.8,152.9,1,136.8c-0.1-1.2-0.6-2.4-1-3.6
			C0,131.5,0,129.9,0,128.2z"/>
	</g>
</g>
</svg>
