<?xml version="1.0" encoding="utf-8"?>
<!-- Generator: Adobe Illustrator 25.2.1, SVG Export Plug-In . SVG Version: 6.00 Build 0)  -->
<svg version="1.1" id="Layer_1" xmlns="http://www.w3.org/2000/svg" xmlns:xlink="http://www.w3.org/1999/xlink" x="0px" y="0px"
	 viewBox="0 0 329 452.4" style="enable-background:new 0 0 329 452.4;" xml:space="preserve">
<style type="text/css">
	.st0{display:none;fill:#C1194D;}
	.st1{fill:#FEFCFD;}
	.st2{opacity:0.7;fill:#FFFFFF;}
	.st3{display:none;fill:#C21B4E;}
	.st4{display:none;fill:#C11A4D;}
	.st5{fill:#C21B4E;}
</style>
<g>
	<path class="st0" d="M-375.4,759.8c0-360,0-719.9,0-1080c359.9,0,719.9,0,1080,0c0,359.9,0,720,0,1080
		C344.7,759.8-15.3,759.8-375.4,759.8z M114.4,39.5c-8.1,0.4-16.3,0.2-24.4,1.3c-46.4,6-86,47.5-89.3,94
		c-0.8,11.4,0.5,22.9,0.9,34.3c0.5,13.1,3,25.7,8.7,37.6c13.1,27,36.2,40.1,64.5,44.8c13,2.2,26.5,1.6,39.8,2.3
		c0,34.6,0,69.3,0,103.9c-8.5-0.3-16.9-0.4-25.4-1c-22.9-1.7-44.3-8.4-64.1-20.1c-11-6.5-21-14.2-25.1-27.1
		c2.2,34.9,17.1,62.9,45.5,83.2c20.5,14.7,43.9,20.1,68.8,19.3c0,13.5,0,27,0,40.5c10.7,0,20.2,0,30.5,0c0-13.7,0-27.1,0-40.5
		c13.2,0,26.3,0,39.5,0c0,13.5,0,27,0,40.5c10.7,0,20.2,0,30.5,0c0-13.7,0-27.1,0-40.5c3.7-0.1,7.3-0.1,11-0.2
		c47.7-0.7,90.7-36.3,100.8-83.1c3.3-15.4,2-30.8,1.8-46.2c-0.1-13.8-3.2-27-9.5-39.4c-13.3-25.9-36.1-38.5-63.6-43
		c-13.4-2.2-27.2-1.6-40.8-2.3c0-34.6,0-69.3,0-103.9c10.9,0.6,22,0.5,32.8,2.1c31.9,4.7,61.5,14.5,81.3,42.3
		c-0.1-1.4-0.1-3.2-0.3-5c-4.2-30.4-18.4-54.9-43.1-73.2c-20.9-15.5-44.7-21.6-70.5-20.4c0-13.2,0-26.4,0-39.5
		c-10.7,0-20.2,0-30.5,0c0,13.4,0,26.4,0,39.5c-13.2,0-26.3,0-39.5,0c0-13.2,0-26.4,0-39.5c-10.7,0-20.2,0-30.5,0
		C114.4,13.4,114.4,26.4,114.4,39.5z"/>
	<path class="st1" d="M114.4,411.9c-25,0.9-48.3-4.6-68.8-19.3C17.1,372.3,2.2,344.4,0,309.4c4.2,13,14.2,20.6,25.1,27.1
		c19.7,11.7,41.2,18.4,64.1,20.1c8.4,0.6,16.9,0.7,25.4,1c10,0,20.1,0,30.1,0c13.3,0,26.6,0,39.9,0c10,0,20.1,0,30.1,0
		c20.2,1.5,37.2-4.5,48.7-22c7.4-11.2,9.1-24.1,9.1-37.3c0-15.2-6.8-26.8-18.8-35.6c-11.7-8.5-25-10.1-39-9.1c-10,0-20.1,0-30.1,0
		c-13.3,0-26.6,0-39.9,0c-10,0-20.1,0-30.1,0c-13.3-0.7-26.7-0.1-39.8-2.3c-28.3-4.7-51.4-17.8-64.5-44.8
		c-5.7-11.8-8.2-24.5-8.7-37.6c-0.4-11.4-1.7-22.9-0.9-34.3c3.3-46.5,42.8-88,89.3-94c8.1-1,16.3-0.9,24.4-1.3c10.2,0,20.4,0,30.5,0
		c13.2,0,26.3,0,39.5,0c10.2,0,20.4,0,30.5,0c25.8-1.2,49.6,4.9,70.5,20.4c24.7,18.3,38.9,42.8,43.1,73.2c0.2,1.8,0.2,3.6,0.3,5
		c-19.8-27.8-49.4-37.6-81.3-42.3c-10.8-1.6-21.8-1.4-32.8-2.1c-10,0-20.1,0-30.1,0c-13.3,0-26.6,0-39.9,0c-10,0-20.1,0-30.1,0
		c-27.2-2.7-46.7,13.1-52.3,31.8c-2.9,9.5-4.4,19.9-4.1,29.9c0.6,20.3,12.6,34.8,32.2,39.9c7.7,2,16.1,1.7,24.1,2.4
		c10,0,20.1,0,30.1,0c13.3,0,26.6,0,39.9,0c10,0,20.1,0,30.1,0c13.6,0.7,27.4,0.1,40.8,2.3c27.5,4.5,50.3,17.1,63.6,43
		c6.3,12.3,9.4,25.6,9.5,39.4c0.2,15.4,1.5,30.8-1.8,46.2c-10.1,46.8-53.1,82.4-100.8,83.1c-3.7,0.1-7.3,0.1-11,0.2
		c-10.2,0-20.4,0-30.5,0c-13.2,0-26.3,0-39.5,0C134.7,411.9,124.6,411.9,114.4,411.9z M246.8,354.3c1.4,0.2,2.9,0.7,4.2,0.5
		c32.3-7.1,57.3-24.3,72.9-53.9c0.8-1.6,1.7-3.4,1.7-5.1c-0.3-9,0-18.1-1.4-26.9c-5.8-34.1-26.8-54.2-59.5-63.1
		c-5-1.3-10.1-2.2-15.6-3.4c0.4,1.1,0.4,1.3,0.5,1.3c0.5,0.4,1.1,0.8,1.7,1.1c11.8,7.3,20.2,17.5,24,30.8c4,14.1,6.7,28.4-2.8,41.8
		c-0.6,0.9-0.7,2.6-0.4,3.7c4,11.5,3.7,23.3,1.6,35c-3.1,16.7-11,30.2-26.7,38.2c0.1,0.4,0.1,0.8,0.2,1.1c0.1-0.1,0.3-0.1,0.4-0.2
		C247.3,354.9,247.1,354.6,246.8,354.3z M83.4,97.2c-1.6-0.1-3.3-0.6-4.8-0.3c-14.7,3.4-28.5,8.9-40.8,17.9
		c-16,11.8-24.6,28.5-31.5,46.4c-1.1,2.9-1.8,6.1-1.6,9.2c0.8,14.8,4,29,12.2,41.6c16.5,25.5,41.9,34.4,71.4,37.7
		c-1.5-1-2-1.4-2.5-1.7c-27.1-14.1-37.4-41.5-26.3-69.9c0.5-1.2,0.8-3,0.3-4.1c-5.5-12.6-5.4-25.6-3-38.7
		C59.8,118.7,67.7,105.2,83.4,97.2c-0.2-0.2-0.4-0.5-0.6-0.7C83,96.8,83.2,97,83.4,97.2z"/>
	<path class="st2" d="M214.7,197.7c-10,0-20.1,0-30.1,0c0-34.6,0-69.3,0-103.9c10,0,20.1,0,30.1,0
		C214.7,128.4,214.7,163,214.7,197.7z"/>
	<path class="st2" d="M114.6,253.8c10,0,20.1,0,30.1,0c0,34.6,0,69.3,0,103.9c-10,0-20.1,0-30.1,0
		C114.6,323.1,114.6,288.4,114.6,253.8z"/>
	<path class="st2" d="M114.4,411.9c10.2,0,20.4,0,30.5,0c0,13.4,0,26.8,0,40.5c-10.3,0-19.9,0-30.5,0
		C114.4,439,114.4,425.5,114.4,411.9z"/>
	<path class="st2" d="M184.4,411.9c10.2,0,20.4,0,30.5,0c0,13.4,0,26.8,0,40.5c-10.3,0-19.9,0-30.5,0
		C184.4,439,184.4,425.5,184.4,411.9z"/>
	<path class="st2" d="M144.9,39.5c-10.2,0-20.4,0-30.5,0c0-13.1,0-26.1,0-39.5c10.3,0,19.9,0,30.5,0
		C144.9,13.1,144.9,26.3,144.9,39.5z"/>
	<path class="st2" d="M214.9,39.5c-10.2,0-20.4,0-30.5,0c0-13.1,0-26.1,0-39.5c10.3,0,19.9,0,30.5,0
		C214.9,13.1,214.9,26.3,214.9,39.5z"/>
	<path class="st3" d="M83.4,97.2c-15.7,8-23.6,21.5-26.6,38.1c-2.4,13.1-2.5,26.1,3,38.7c0.5,1.1,0.2,2.9-0.3,4.1
		c-11.1,28.4-0.8,55.8,26.3,69.9c0.6,0.3,1.1,0.7,2.5,1.7c-29.5-3.4-55-12.2-71.4-37.7c-8.1-12.6-11.4-26.8-12.2-41.6
		c-0.2-3,0.5-6.3,1.6-9.2c6.9-17.9,15.4-34.6,31.5-46.4c12.3-9,26.1-14.5,40.8-17.9C80.1,96.6,81.8,97.1,83.4,97.2L83.4,97.2z"/>
	<path class="st3" d="M246.9,354.3c15.7-8,23.6-21.5,26.7-38.2c2.2-11.7,2.5-23.5-1.6-35c-0.4-1.1-0.3-2.8,0.4-3.7
		c9.5-13.4,6.8-27.7,2.8-41.8c-3.8-13.3-12.2-23.5-24-30.8c-0.6-0.4-1.1-0.7-1.7-1.1c-0.1-0.1-0.1-0.3-0.5-1.3
		c5.5,1.2,10.6,2,15.6,3.4c32.7,8.9,53.7,29,59.5,63.1c1.5,8.8,1.2,17.9,1.4,26.9c0.1,1.7-0.8,3.6-1.7,5.1
		c-15.6,29.7-40.6,46.8-72.9,53.9C249.7,355,248.2,354.4,246.9,354.3L246.9,354.3z"/>
	<path class="st4" d="M214.7,253.8c13.9-1,27.3,0.6,39,9.1c12,8.8,18.8,20.4,18.8,35.6c0,13.2-1.7,26.1-9.1,37.3
		c-11.5,17.5-28.5,23.5-48.7,22C214.7,323.1,214.7,288.4,214.7,253.8z"/>
	<path class="st4" d="M114.6,197.7c-8.1-0.7-16.4-0.4-24.1-2.4c-19.7-5.1-31.6-19.6-32.2-39.9c-0.3-9.9,1.2-20.3,4.1-29.9
		c5.6-18.7,25.1-34.4,52.3-31.8C114.6,128.4,114.6,163,114.6,197.7z"/>
	<path class="st0" d="M184.6,93.7c0,34.6,0,69.3,0,103.9c-13.3,0-26.6,0-39.9,0c0-34.6,0-69.3,0-103.9
		C158,93.7,171.3,93.7,184.6,93.7z"/>
	<path class="st0" d="M144.7,357.7c0-34.6,0-69.3,0-103.9c13.3,0,26.6,0,39.9,0c0,34.6,0,69.3,0,103.9
		C171.3,357.7,158,357.7,144.7,357.7z"/>
	<path class="st2" d="M144.7,93.7c0,34.6,0,69.3,0,103.9c-10,0-20.1,0-30.1,0c0-34.6,0-69.3,0-103.9
		C124.6,93.7,134.7,93.7,144.7,93.7z"/>
	<path class="st2" d="M184.6,357.7c0-34.6,0-69.3,0-103.9c10,0,20.1,0,30.1,0c0,34.6,0,69.3,0,103.9
		C204.7,357.7,194.6,357.7,184.6,357.7z"/>
	<path class="st5" d="M246.8,354.3c0.2,0.3,0.5,0.6,0.7,0.9c-0.1,0.1-0.3,0.1-0.4,0.2C247.1,355,247,354.6,246.8,354.3
		C246.9,354.3,246.8,354.3,246.8,354.3z"/>
	<path class="st5" d="M83.4,96.6c-0.2-0.2-0.4-0.5-0.6-0.7C83,96.1,83.2,96.3,83.4,96.6C83.4,96.6,83.4,96.6,83.4,96.6z"/>
</g>
</svg>
