<?xml version="1.0" encoding="utf-8"?>
<!-- Generator: Adobe Illustrator 25.2.1, SVG Export Plug-In . SVG Version: 6.00 Build 0)  -->
<svg version="1.1" id="Layer_1" xmlns="http://www.w3.org/2000/svg" xmlns:xlink="http://www.w3.org/1999/xlink" x="0px" y="0px"
	 viewBox="0 0 331.1 452.5" style="enable-background:new 0 0 331.1 452.5;" xml:space="preserve">
<style type="text/css">
	.st0{display:none;fill:#C1194D;}
	.st1{fill:#FEFCFD;}
	.st2{opacity:0.7;fill:#FFFFFF;}
	.st3{display:none;fill:#C21B4E;}
	.st4{display:none;fill:#C21A4E;}
	.st5{fill:#C21B4E;}
</style>
<g>
	<path class="st0" d="M-375,759.8c0-360,0-719.9,0-1080c359.9,0,719.9,0,1080,0c0,359.9,0,720,0,1080
		C345.1,759.8-14.9,759.8-375,759.8z M215.3,405.9c1.8,0,3.7,0,5.5,0c47.7,0.6,85.5-28.5,101.2-66.7c6.1-14.9,7.6-30.7,8.7-46.4
		c1.6-21.2-1.6-41.6-12.9-60c-13.3-21.7-34-32.4-58-38.1c-14.8-3.5-29.8-2.9-44.8-3c0-32.7,0-65.3,0-98c31.1-1.2,60.6,4.6,87.8,20.2
		c11.6,6.7,22.4,14.5,27,29.1c-1.3-26.4-10.1-48.8-27-67.6c-23.3-25.9-52.9-37.1-87.4-35.8c0-13.2,0-26.5,0-39.6
		c-10.7,0-20.3,0-30.5,0c0,13.4,0,26.5,0,39.6c-13.2,0-26.3,0-39.5,0c0-13.2,0-26.5,0-39.6c-10.7,0-20.3,0-30.5,0
		c0,13.4,0,26.5,0,39.6c-1.8,0-3.7-0.1-5.5,0C62.2,40,23.9,65.8,7.5,108.1c-8,20.7-8.2,42.3-6.8,64c0.9,14.4,4.9,28.2,12.6,40.6
		c13.4,21.7,33.9,33.3,58.1,37.7c14.3,2.6,29.1,2.3,43.7,3.3c0,32.7,0,65.3,0,98c-31.1,1.2-60.6-4.6-87.8-20.2
		c-11.6-6.7-22.4-14.5-27-29.1c1.3,26.4,10.1,48.8,27,67.6c23.3,25.9,52.9,37.1,87.4,35.8c0,15.6,0,31.1,0,46.6
		c10.7,0,20.3,0,30.5,0c0-15.7,0-31.2,0-46.6c13.2,0,26.3,0,39.5,0c0,15.6,0,31.1,0,46.6c10.7,0,20.3,0,30.5,0
		C215.3,436.8,215.3,421.3,215.3,405.9z"/>
	<path class="st1" d="M115,253.8c-14.6-1-29.4-0.7-43.7-3.3c-24.2-4.5-44.6-16.1-58.1-37.7c-7.7-12.4-11.7-26.1-12.6-40.6
		c-1.4-21.7-1.2-43.3,6.8-64C23.9,65.8,62.2,40,109.3,39.6c1.8,0,3.7,0,5.5,0c10.2,0,20.4,0,30.5,0c13.2,0,26.3,0,39.5,0
		c10.2,0,20.4,0,30.5,0c34.6-1.3,64.1,9.9,87.4,35.8c17,18.9,25.7,41.3,27,67.6c-4.6-14.6-15.3-22.4-27-29.1
		c-27.2-15.5-56.7-21.4-87.8-20.2c-10,0-20.1,0-30.1,0c-13.3,0-26.6,0-39.9,0c-10,0-20,0-30.1,0c-2.7-0.1-5.3-0.2-8-0.2
		c-19.6,0.2-35.7,11.2-42.7,29.6c-3.9,10.3-4.8,21-3.7,31.9c1.8,17.2,11.8,27.6,27.3,33.6c8.8,3.4,17.9,3.3,27.1,3
		c10,0,20.1,0,30.1,0c13.3,0,26.6,0,39.9,0c10,0,20.1,0,30.1,0c15,0.1,30-0.5,44.8,3c24,5.7,44.7,16.3,58,38.1
		c11.3,18.4,14.4,38.9,12.9,60c-1.2,15.7-2.6,31.5-8.7,46.4c-15.7,38.2-53.5,67.3-101.2,66.7c-1.8,0-3.7,0-5.5,0
		c-10.2,0-20.4,0-30.5,0c-13.2,0-26.3,0-39.5,0c-10.2,0-20.4,0-30.5,0c-34.6,1.3-64.1-9.9-87.4-35.8c-17-18.9-25.7-41.3-27-67.6
		c4.6,14.6,15.3,22.4,27,29.1c27.2,15.5,56.7,21.4,87.8,20.2c10,0,20.1,0,30.1,0c13.3,0,26.6,0,39.9,0c10,0,20,0,30.1,0
		c3.3,0.1,6.7,0.3,10,0.1c19.5-0.6,35.1-11.8,41.9-30.1c3.7-10.1,4.7-20.7,3.5-31.5c-1.9-17.3-11.8-27.9-27.7-33.8
		c-9-3.3-18.3-3.2-27.6-2.8c-10,0-20.1,0-30.1,0c-13.3,0-26.6,0-39.9,0C135.1,253.8,125,253.8,115,253.8z M69.9,100.2
		c-1.9,0.1-3.9-0.1-5.7,0.5c-16.1,5.4-29.6,14.7-41.9,26.4c-9.6,9.2-13.9,19.8-13.8,33.3c0.3,41.4,18.9,68.5,56.2,79.8
		c8.3,2.5,17.1,3.6,25.7,5.3c0.1-0.5,0.3-0.9,0.4-1.4c-17.5-6.2-29.1-17.7-33.3-36c-2.2-9.7-2.4-19.4-0.1-29.2
		c0.4-1.5,0.5-3.4-0.1-4.7c-7.9-16.5-6.9-33.3-2.1-50.2C57.8,114.7,62.1,106.2,69.9,100.2C69.7,99.9,69.5,99.7,69.9,100.2
		C69.4,99.8,69.7,100,69.9,100.2z M262.3,345.5c0.7,0.1,1,0.2,1.3,0.2c23.2-7.7,41.9-21.4,55.6-41.7c1.2-1.9,2.1-4.2,2.4-6.4
		c1.8-17.8,0.9-35.3-6.7-51.8c-10.9-23.9-30.7-36.1-55.5-42.1c0.1,0.7,0,0.9,0.1,1c1.1,1.2,2.3,2.4,3.4,3.6
		c13.7,15.5,19.1,33.7,14.2,53.6c-1.7,6.8-1.9,12.2-0.2,19C282.8,304.3,278.7,326.2,262.3,345.5z"/>
	<path class="st2" d="M215.1,191.7c-10,0-20.1,0-30.1,0c0-32.7,0-65.3,0-98c10,0,20.1,0,30.1,0C215.1,126.4,215.1,159.1,215.1,191.7
		z"/>
	<path class="st2" d="M145.1,351.8c-10,0-20.1,0-30.1,0c0-32.7,0-65.3,0-98c10,0,20.1,0,30.1,0C145.1,286.4,145.1,319.1,145.1,351.8
		z"/>
	<path class="st2" d="M114.8,405.9c10.2,0,20.4,0,30.5,0c0,15.4,0,30.9,0,46.6c-10.3,0-19.9,0-30.5,0
		C114.8,437,114.8,421.5,114.8,405.9z"/>
	<path class="st2" d="M184.8,405.9c10.2,0,20.4,0,30.5,0c0,15.4,0,30.9,0,46.6c-10.3,0-19.9,0-30.5,0
		C184.8,437,184.8,421.5,184.8,405.9z"/>
	<path class="st2" d="M145.3,39.6c-10.2,0-20.4,0-30.5,0c0-13.1,0-26.2,0-39.6c10.3,0,19.9,0,30.5,0
		C145.3,13.1,145.3,26.4,145.3,39.6z"/>
	<path class="st2" d="M215.3,39.6c-10.2,0-20.4,0-30.5,0c0-13.1,0-26.2,0-39.6c10.3,0,19.9,0,30.5,0
		C215.3,13.1,215.3,26.4,215.3,39.6z"/>
	<path class="st3" d="M69.9,100.2c-7.8,6.1-12.1,14.5-14.7,23.6c-4.8,16.9-5.8,33.8,2.1,50.2c0.6,1.3,0.5,3.2,0.1,4.7
		c-2.4,9.8-2.1,19.5,0.1,29.2c4.2,18.3,15.8,29.9,33.3,36c-0.1,0.5-0.3,0.9-0.4,1.4c-8.6-1.7-17.3-2.8-25.7-5.3
		c-37.4-11.2-55.9-38.4-56.2-79.8c-0.1-13.5,4.1-24,13.8-33.3c12.2-11.7,25.8-21,41.9-26.4C66,100.1,68,100.3,69.9,100.2L69.9,100.2
		z"/>
	<path class="st4" d="M215.1,253.8c9.3-0.4,18.6-0.5,27.6,2.8c16,5.8,25.8,16.5,27.7,33.8c1.2,10.8,0.2,21.3-3.5,31.5
		c-6.7,18.3-22.4,29.4-41.9,30.1c-3.3,0.1-6.7-0.1-10-0.1C215.1,319.1,215.1,286.4,215.1,253.8z"/>
	<path class="st3" d="M262.3,345.5c16.4-19.3,20.5-41.2,14.7-64.8c-1.7-6.8-1.4-12.1,0.2-19c4.9-19.9-0.5-38.1-14.2-53.6
		c-1.1-1.2-2.3-2.4-3.4-3.6c-0.1-0.1-0.1-0.3-0.1-1c24.8,6.1,44.6,18.3,55.5,42.1c7.5,16.5,8.5,34.1,6.7,51.8
		c-0.2,2.2-1.1,4.6-2.4,6.4c-13.7,20.3-32.4,34.1-55.6,41.7C263.3,345.7,263,345.6,262.3,345.5z"/>
	<path class="st4" d="M115,191.7c-9.2,0.3-18.3,0.5-27.1-3c-15.4-6.1-25.5-16.5-27.3-33.6c-1.1-10.9-0.2-21.6,3.7-31.9
		c7-18.3,23-29.4,42.7-29.6c2.7,0,5.3,0.1,8,0.2C115,126.4,115,159.1,115,191.7z"/>
	<path class="st0" d="M185,93.8c0,32.7,0,65.3,0,98c-13.3,0-26.6,0-39.9,0c0-32.7,0-65.3,0-98C158.4,93.8,171.7,93.8,185,93.8z"/>
	<path class="st0" d="M145.1,351.8c0-32.7,0-65.3,0-98c13.3,0,26.6,0,39.9,0c0,32.7,0,65.3,0,98
		C171.7,351.8,158.4,351.8,145.1,351.8z"/>
	<path class="st2" d="M145.1,93.8c0,32.7,0,65.3,0,98c-10,0-20.1,0-30.1,0c0-32.7,0-65.3,0-98C125,93.8,135.1,93.8,145.1,93.8z"/>
	<path class="st2" d="M185,351.8c0-32.7,0-65.3,0-98c10,0,20.1,0,30.1,0c0,32.7,0,65.3,0,98C205.1,351.8,195,351.8,185,351.8z"/>
	<path class="st5" d="M69.9,100.2C69.7,100,69.4,99.8,69.9,100.2C69.5,99.7,69.7,99.9,69.9,100.2C69.9,100.2,69.9,100.2,69.9,100.2z
		"/>
</g>
</svg>
