<?xml version="1.0" encoding="utf-8"?>
<!-- Generator: Adobe Illustrator 25.2.1, SVG Export Plug-In . SVG Version: 6.00 Build 0)  -->
<svg version="1.1" id="Layer_1" xmlns="http://www.w3.org/2000/svg" xmlns:xlink="http://www.w3.org/1999/xlink" x="0px" y="0px"
	 viewBox="0 0 370 181" style="enable-background:new 0 0 370 181;" xml:space="preserve">
<style type="text/css">
	.st0{fill:#EBEBEB;}
	.st1{fill:#DBDBDB;}
	.st2{fill:#A6A6A6;}
	.st3{fill:#FFFFFF;}
	.st4{fill:#C7C7C7;}
</style>
<path class="st0" d="M350.3,149.6l-13.1,0.3l-6.7,0.1c-2.2,0.1-4.5,0-6.7,0.1h-0.5v-0.5l0-11.2v-0.5h0.5l13.2,0.1
	c4.4,0,8.8,0.1,13.2,0.2h0.3v0.3c0,1.9-0.1,3.8-0.1,5.6L350.3,149.6z M350.3,149.6l-0.1-5.7c0-1.9-0.1-3.7-0.1-5.5l0.3,0.3
	c-4.4,0.1-8.8,0.2-13.2,0.2l-13.2,0.1l0.5-0.5l-0.1,11.2l-0.4-0.4c2.2,0,4.4,0,6.5,0.1l6.6,0.1L350.3,149.6z"/>
<path class="st0" d="M335.6,163.7l-13.1,0.3l-6.7,0.1c-2.2,0-4.5,0-6.7,0h-0.5v-0.5l0-11.1v-0.5h0.5l13.2,0.1
	c4.4,0,8.8,0.1,13.2,0.2h0.3v0.3c0,1.9-0.1,3.8-0.1,5.6L335.6,163.7z M335.6,163.7l-0.1-5.7c0-1.9-0.1-3.7-0.1-5.5l0.3,0.3
	c-4.4,0-8.8,0.2-13.2,0.2l-13.2,0.1l0.5-0.5l-0.1,11.2l-0.4-0.5c2.2,0,4.4,0,6.5,0.1l6.6,0.1L335.6,163.7z"/>
<path class="st0" d="M320.8,149.6l-13.1,0.3L301,150c-2.2,0.1-4.5,0-6.7,0.1h-0.4v-0.5l-0.1-11.2v-0.5h0.5l13.2,0.1
	c4.4,0,8.8,0.1,13.2,0.2h0.3v0.3c0,1.9-0.1,3.8-0.1,5.6L320.8,149.6z M320.8,149.6l-0.1-5.7c0-1.9-0.1-3.7-0.1-5.5l0.3,0.3
	c-4.4,0.1-8.8,0.2-13.2,0.2l-13.2,0.1l0.5-0.5l0,11.2l-0.5-0.5c2.2,0,4.4,0,6.5,0.1l6.6,0.1L320.8,149.6z"/>
<path class="st0" d="M62.4,23.1l-13.1,0.3l-6.7,0.1c-2.2,0-4.5,0-6.7,0h-0.4V23l-0.1-11.1v-0.5h0.5l13.2,0.1c4.4,0,8.8,0.1,13.2,0.2
	h0.3v0.3c0,1.9-0.1,3.8-0.1,5.7L62.4,23.1z M62.4,23.1l-0.1-5.7c0-1.9-0.1-3.7-0.1-5.5l0.3,0.3c-4.4,0-8.8,0.2-13.2,0.2l-13.2,0.1
	l0.5-0.5v11.2l-0.5-0.5c2.2,0,4.4,0,6.6,0.1l6.6,0.1L62.4,23.1z"/>
<rect x="26.3" y="89.4" class="st0" width="293.9" height="7.6"/>
<rect x="36" y="97" class="st0" width="7.6" height="25.2"/>
<rect x="36" y="97" class="st1" width="7.6" height="7.8"/>
<rect x="302.8" y="97" class="st0" width="7.6" height="25.2"/>
<rect x="302.8" y="97" class="st1" width="7.6" height="7.8"/>
<polygon class="st1" points="90.5,63.8 89,67.8 88.1,70.1 86.6,74.1 80.8,89.4 49.5,89.4 43.7,74.1 42.2,70.1 41.3,67.8 39.9,63.8 
	51.4,47 45.4,35.9 84.9,35.9 78.9,47 "/>
<polygon class="st2" points="90.5,63.8 89,67.8 41.3,67.8 39.9,63.8 "/>
<polygon class="st2" points="88.1,70.1 86.6,74.1 43.7,74.1 42.2,70.1 "/>
<rect x="128.3" y="16.5" class="st1" width="60.1" height="73"/>
<rect x="135.2" y="23.2" class="st3" width="46.4" height="59.7"/>
<rect x="135.2" y="23.2" class="st4" width="1.8" height="59.7"/>
<rect x="188.5" y="16.5" class="st4" width="1.8" height="73"/>
<rect x="153.9" y="38.6" class="st0" width="9.4" height="23.7"/>
<path class="st1" d="M173.6,69.8h-26.2V52.5h26.2V69.8z M148.5,68.8h24.2V53.5h-24.2V68.8z"/>
<polygon class="st1" points="144.2,89.4 98.5,89.4 108.3,34 154,34 "/>
<polygon class="st3" points="139.8,84.4 104.6,84.4 112.6,39 147.8,39 "/>
<polygon class="st4" points="106,84.4 104.6,84.4 112.6,39 114,39 "/>
<polygon class="st4" points="145.6,89.4 144.2,89.4 154,34 155.3,34 "/>
<polygon class="st1" points="129.1,49.5 137.5,49.5 133.1,74.3 124.8,74.3 "/>
<path class="st0" d="M140.1,57.9h-23.2l2.3-13.1h23.2L140.1,57.9z M118.1,56.9h21.2l2-11.1h-21.2L118.1,56.9z"/>
<path class="st0" d="M265.4,65.8c-0.1,2.8-2.9,23.6-2.9,23.6H217c0,0-2.3-14.5-1.7-16.6s4.5-6.1,5.4-7.9l0,0
	c0.1-0.3,0.2-0.6,0.2-0.8c0-2-2.2-5.4-1.7-8.3c0.5-3.3,4.8-5.8,5.7-8.1s2.8-11.8,4.5-13.1s21.6-0.8,22.8,0.2c0.7,0.7,2,6.3,3.3,10.8
	l0,0c0.4,1.8,1,3.5,1.8,5.2l0.1,0.1c2.2,3,4.1,6.1,5.9,9.3c1.2,2.2,2.1,4.2,2.2,5.3l0,0C265.4,65.6,265.4,65.7,265.4,65.8z"/>
<path class="st1" d="M243,59.9c-2.4,3.5-4.9,6.9-7.3,10.4c-1.5,2.1-3.1,5.2-5.8,6c-2.4,0.7-7.5-7.9-9.1-11.3l0,0
	c0.1-0.3,0.2-0.6,0.2-0.8c0.3,0.2,0.5,0.5,0.7,0.7c1.3,1.3,2.7,2.7,4.4,2.9c2.2,0.3,4.3-1.1,6.2-2.2c3.4-2,6.7-4.1,9.9-6.5
	C242.6,58.7,243.3,59.4,243,59.9z"/>
<path class="st1" d="M257.2,50.8c-2.5,1.8-8.2,5.4-10.9,4.9c-3.6-0.7-13.7-7.1-13.7-7.1s9.7,2.5,12.3,3s10.6-6.1,10.6-6.1l0,0
	C255.8,47.4,256.4,49.2,257.2,50.8z"/>
<path class="st1" d="M265.4,65.6L265.4,65.6c-1.4,2.6-5.1,9.2-5.5,9.4s-7.1,5.2-9.6,5s-13.4-4.5-12.5-5.5c0.4-0.5,11.6,3.1,12.6,3.3
	s3.9-3.3,5.1-3.9c1-0.6,6.4-11,7.7-13.6C264.5,62.4,265.4,64.5,265.4,65.6z"/>
</svg>
