<?xml version="1.0" encoding="utf-8"?>
<!-- Generator: Adobe Illustrator 25.2.1, SVG Export Plug-In . SVG Version: 6.00 Build 0)  -->
<svg version="1.1" id="Layer_1" xmlns="http://www.w3.org/2000/svg" xmlns:xlink="http://www.w3.org/1999/xlink" x="0px" y="0px"
	 viewBox="0 0 179 500" style="enable-background:new 0 0 179 500;" xml:space="preserve">
<style type="text/css">
	.st0{fill:#EBEBEB;}
	.st1{fill:#E6E6E6;}
	.st2{fill:#E0E0E0;}
	.st3{fill:#FFFFFF;}
	.st4{fill:#F5F5F5;}
</style>
<rect x="50.6" y="463.5" class="st0" width="87.7" height="0.5"/>
<rect x="156.3" y="463.5" class="st0" width="12.9" height="0.5"/>
<path class="st1" d="M91.9,11.9c4.4,6.1,9.7,11.6,13.4,18.3c1.9,3.4,3.2,7.1,3.8,10.9c0.7,3.8,0.5,7.7-0.8,11.4
	c-2.3,6.7-6.1,9.9-10.2,10.2c-4.1,0.2-8.1-2.7-9.7-8.9C85,39.7,86.2,25,91.9,11.9z"/>
<path class="st2" d="M96.8,79.5l-4.3-2c9.4-20.3,22.1-38.9,37.7-55l3.4,3.3C118.4,41.4,106,59.6,96.8,79.5z"/>
<path class="st0" d="M139,68.8c-6.8-3-13.5-6.8-20.7-8.4c-3.7-0.9-7.6-0.9-11.3-0.2c-3.8,0.7-7.2,2.6-9.8,5.4
	c-2.1,2.1-3.6,4.8-4.2,7.8c-0.5,2.1-0.1,4.4,1.1,6.2c2.3,3.3,7.1,4.5,12.9,2.9C118.2,79.5,129,74.9,139,68.8z"/>
<path class="st1" d="M51.9,83.3c6.3,4.2,13.2,7.4,19,12.4c3,2.5,5.5,5.5,7.5,8.9c2,3.3,3.2,7,3.3,10.9c0.2,7-2.3,11.4-5.9,13.1
	c-3.7,1.6-8.5,0.3-12.2-4.9C55.2,111.9,51.1,97.7,51.9,83.3z"/>
<path class="st2" d="M80.4,144.8l-4.8-0.3c0.8-11.1,2.5-22.2,5.2-33C83.4,100.6,87,90,91.5,79.8l4.4,1.9c-4.4,10-7.9,20.3-10.5,30.8
	C82.8,123.1,81.2,133.9,80.4,144.8z"/>
<path class="st0" d="M116.1,119.9c-7.5-0.4-14.9-1.5-22.3-0.5c-3.8,0.5-7.4,1.8-10.6,3.8c-3.3,2-5.8,5-7.3,8.6
	c-0.6,1.5-1,3.1-1.3,4.7c-0.2,1.3-0.2,2.7,0,4.1c0.3,2.2,1.5,4.1,3.2,5.4c3.2,2.3,8.2,1.8,13-1.7
	C100.3,137.4,108.9,129.2,116.1,119.9z"/>
<path class="st1" d="M39.5,163.6c7.3,1.8,14.9,2.5,22,5.3c7.1,2.7,13.9,7.8,16.6,15.1c2.5,6.6,1.4,11.7-1.7,14.2
	c-1.6,1.4-3.7,2-5.8,1.9c-1.2-0.1-2.4-0.4-3.6-0.9c-1.2-0.5-2.5-1.5-3.8-2.2c-2.7-1.8-5.2-3.8-7.5-6.1c-2.4-2.4-4.6-5-6.6-7.8
	C44.9,177.1,41.6,170.6,39.5,163.6z"/>
<path class="st2" d="M86.2,212l-4.5,1.4c-1.7-5.3-2.9-10.8-3.6-16.3c-0.7-5.5-1.5-11-2-16.6c-1-11.1-1.2-22.3-0.5-33.4l4.8,0.3
	c-0.7,10.9-0.5,21.8,0.5,32.7c0.5,5.5,1.2,10.8,2,16.4C83.5,201.7,84.6,206.9,86.2,212z"/>
<path class="st0" d="M112.1,177c-7.1,2-14.6,3.5-21.3,6.9c-3.4,1.7-6.4,4.1-8.9,7c-1.2,1.5-2.2,3.1-3,4.8c-0.8,1.7-1.3,3.6-1.5,5.6
	c-0.5,7.3,2.9,11.8,6.7,12.6s8.3-1.5,11.6-6.3c3.3-4.8,6.6-9.7,9.7-13.7l0.5-0.8c0.1-0.1,0.2-0.3,0.3-0.4l0.2-0.7l0.5-1.4l0.5-1.2
	c0.3-0.8,0.6-1.5,0.9-2.2l0.9-2.1C110.3,182.4,111.3,179.7,112.1,177z"/>
<path class="st1" d="M56,245.8c7.5-1.3,14.7-3.8,22.3-4.2s16,0.7,20.4,7.6c1.7,2.5,2.7,5.4,2.8,8.4c0,2.2-0.8,4.3-2.3,5.9
	c-2.8,2.8-7.8,3.1-13.2,0.4c-2.7-1.4-5.5-2.6-8-4.1c-1.3-0.7-2.6-1.2-3.8-1.9l-1.8-0.9c-0.6-0.3-1.2-0.5-1.8-0.8l-1.7-0.7
	c-0.3-0.1-0.5-0.2-0.8-0.3l-0.8-0.2l-1.5-0.4c-0.3-0.1-0.5-0.1-0.8-0.2l-1.1-0.9C61.2,251.3,58.5,248.7,56,245.8z"/>
<path class="st2" d="M108.5,278l-4.7,0.6c-0.4-2.8-0.8-5.5-1.3-8.2c-0.5-2.7-1-5.5-1.7-8.1c-1.2-5.4-2.9-10.7-4.9-15.9
	c-2-5.2-4.9-10-7.2-15.1c-2.4-5-4.5-10.2-6.3-15.5l4.5-1.5c1.7,5.1,3.8,10.1,6.1,15c1.2,2.5,2.4,4.9,3.6,7.3c0.6,1.1,1.3,2.6,2,3.9
	s1.2,2.7,1.7,4.1c2.1,5.4,3.8,10.9,5.1,16.6c0.7,2.8,1.2,5.6,1.8,8.4S108.1,275.2,108.5,278z"/>
<path class="st0" d="M129.4,232.6c-2.9,2.5-6.1,4.6-9.2,6.8c-3.2,2.1-6.2,4.5-9,7.1c-1.4,1.3-2.7,2.8-3.9,4.3
	c-1.3,1.5-2.4,3.2-3.3,4.9c-0.9,1.7-1.7,3.4-2.3,5.3c-0.6,1.8-0.9,3.7-1,5.6c-0.1,1.6,0,3.2,0.3,4.8c0.2,1.3,0.6,2.6,1.1,3.8
	c0.5,1,1.1,2,1.9,2.8c0.7,0.8,1.5,1.4,2.4,1.8c3.6,1.7,8.5,0.5,12.4-4.7c2-2.7,3.8-5.6,5.3-8.7c1.6-3.2,2.9-6.5,3.8-9.9
	c0.5-1.7,0.9-3.6,1.3-5.4c0.4-1.8,0.5-3.8,0.7-5.7c0.2-2,0.2-4.1,0.2-6.1c0-1.1,0-2-0.1-3.2C129.7,234.9,129.6,233.8,129.4,232.6z"
	/>
<path class="st1" d="M69.7,298.6c7.3,1.1,15,1.5,22,4.1c3.6,1.3,6.9,3.2,9.6,5.8c2.8,2.6,4.7,6.1,5.4,9.9c1.3,7.1-1.3,11.9-4.9,13.5
	c-3.6,1.5-8.4,0-12.4-4.4C81.5,318.7,74.9,309.1,69.7,298.6z"/>
<path class="st2" d="M105.2,348.6l-4.6-1.1c5.1-21.7,6.3-44.2,3.6-66.3l4.7-0.6C111.7,303.3,110.4,326.3,105.2,348.6z"/>
<path class="st0" d="M141.5,316.1c-7.4,1.6-15,2-22.2,4.5c-3.7,1.3-7.1,3.1-10.2,5.5c-3.1,2.3-5.5,5.4-7.1,8.9
	c-2.8,6.5-2.3,11.4,0.5,14.4s7.7,3.6,13.2,0.2C127.9,341.6,137,329.8,141.5,316.1z"/>
<path class="st2" d="M149.5,11c-1.4,8.8-4.1,17.3-8.1,25.2c-4,8-10.8,14.2-19.2,17.5c-5.4,1.9-9,1-11-1.3c-0.7-0.8-1.2-1.7-1.5-2.6
	c-1.3-3.8-0.7-9.1,1.2-14c3.2-7.3,8.9-13.3,16.1-16.8C134.2,15.3,141.8,12.7,149.5,11z"/>
<path class="st3" d="M133,28.6c-1,0.9-14.5,13.6-21.6,23.9c-0.7-0.8-1.2-1.7-1.5-2.6C116.3,41.4,124.1,34.2,133,28.6z"/>
<path class="st1" d="M132.9,463.7c13.2-43.8,21.9-105.6,21.9-120.8H56.3c0,15.2,8.7,76.9,21.9,120.8c2.4,8.1,10.6,13.6,20,13.6h14.6
	C122.2,477.4,130.4,471.8,132.9,463.7z"/>
<path class="st4" d="M151.9,372c0.7-5.3,1.3-10.2,1.8-14.5H57.3c0.5,4.3,1.1,9.1,1.8,14.5H151.9z"/>
</svg>
