<?xml version="1.0" standalone="no"?><svg xmlns="http://www.w3.org/2000/svg" viewBox="0 0 1440 320"><path fill="#fafafa" fill-opacity="1" d="M0,96L26.7,101.3C53.3,107,107,117,160,122.7C213.3,128,267,128,320,122.7C373.3,117,427,107,480,128C533.3,149,587,203,640,224C693.3,245,747,235,800,213.3C853.3,192,907,160,960,160C1013.3,160,1067,192,1120,192C1173.3,192,1227,160,1280,154.7C1333.3,149,1387,171,1413,181.3L1440,192L1440,0L1413.3,0C1386.7,0,1333,0,1280,0C1226.7,0,1173,0,1120,0C1066.7,0,1013,0,960,0C906.7,0,853,0,800,0C746.7,0,693,0,640,0C586.7,0,533,0,480,0C426.7,0,373,0,320,0C266.7,0,213,0,160,0C106.7,0,53,0,27,0L0,0Z"></path></svg>